<?xml version="1.0" encoding="UTF-8" standalone="no"?><!DOCTYPE svg PUBLIC "-//W3C//DTD SVG 1.1//EN" "http://www.w3.org/Graphics/SVG/1.1/DTD/svg11.dtd"><svg width="100%" height="100%" viewBox="0 0 28 27" version="1.1" xmlns="http://www.w3.org/2000/svg" xmlns:xlink="http://www.w3.org/1999/xlink" xml:space="preserve" xmlns:serif="http://www.serif.com/" style="fill-rule:evenodd;clip-rule:evenodd;stroke-linejoin:round;stroke-miterlimit:2;"><g><g><path id="Arrow-Left-Icon" serif:id="Arrow Left Icon" d="M26.275,7.462l-22.733,-0l4.425,3.984c0.409,0.369 0.409,0.967 0,1.335c-0.409,0.369 -1.073,0.369 -1.482,0l-6.18,-5.565c-0.21,-0.189 -0.31,-0.438 -0.305,-0.686c0,-0 0,-0.001 0,-0.001c0,-0 0,-0 0,-0c-0.005,-0.249 0.095,-0.498 0.305,-0.687l6.18,-5.566c0.409,-0.368 1.073,-0.368 1.482,0c0.409,0.369 0.409,0.967 0,1.336l-4.425,3.985l22.733,-0c0.572,-0 1.035,0.417 1.035,0.932c0,0.515 -0.463,0.933 -1.035,0.933Z" style="fill:#ecedec;"/></g><g><path id="Arrow-Left-Icon1" serif:id="Arrow Left Icon" d="M1.035,21.115l22.733,0l-4.425,3.985c-0.409,0.369 -0.409,0.966 0,1.335c0.41,0.369 1.073,0.369 1.483,0l6.179,-5.565c0.21,-0.189 0.311,-0.439 0.305,-0.686c0,-0.001 0,-0.001 0,-0.001c0,-0.001 0,-0.001 0,-0.001c0.006,-0.248 -0.095,-0.498 -0.305,-0.687l-6.179,-5.565c-0.41,-0.368 -1.073,-0.368 -1.483,-0c-0.409,0.369 -0.409,0.967 0,1.335l4.425,3.985l-22.733,0c-0.571,0 -1.035,0.418 -1.035,0.933c0,0.515 0.464,0.932 1.035,0.932Z" style="fill:#ecedec;"/></g></g></svg>